simulation
nRows=24
nColumns=15
endheader
time  TH_x TH_y TH_z SC_y  SC_z  SC_x  AC_y  AC_z  AC_x  GH_y  GH_z  GH_yy  EL_x  PS_y
0.750318  0.000000  0.000000  0.000000  -7.363598  -9.204641  39.715190  71.699711  -21.703628  -22.107590  41.115757  48.291237  -63.409458  25.315628  102.484555
0.750953  0.000000  0.000000  0.000000  -7.363598  -9.204641  44.000904  71.098354  -25.765719  -23.600628  41.115757  48.291237  -63.409458  25.315628  102.484555
0.751588  0.000000  0.000000  0.000000  -7.363598  -9.204641  48.286618  70.352476  -29.811497  -25.199422  41.115757  48.291237  -63.409458  25.315628  102.484555
0.752224  0.000000  0.000000  0.000000  -7.363598  -9.204641  52.572333  69.437783  -33.836412  -26.932893  41.115757  48.291237  -63.409458  25.315628  102.484555
0.752859  0.000000  0.000000  0.000000  -3.076770  3.839903  -7.427667  66.385371  30.927418  5.919524  41.653869  69.984364  -38.066598  14.444347  104.519707
0.753494  0.000000  0.000000  0.000000  -3.076770  3.839903  -3.141953  67.318042  26.986324  3.994403  41.653869  69.984364  -38.066598  14.444347  104.519707
0.754130  0.000000  0.000000  0.000000  -3.076770  3.839903  1.143761  68.076933  23.020857  2.200147  41.653869  69.984364  -38.066598  14.444347  104.519707
0.754765  0.000000  0.000000  0.000000  -3.076770  3.839903  5.429476  68.684256  19.036326  0.508790  41.653869  69.984364  -38.066598  14.444347  104.519707
0.755400  0.000000  0.000000  0.000000  -3.076770  3.839903  9.715190  69.156815  15.037126  -1.103044  41.653869  69.984364  -38.066598  14.444347  104.519707
0.756036  0.000000  0.000000  0.000000  -3.076770  3.839903  14.000904  69.507100  11.026984  -2.655383  41.653869  69.984364  -38.066598  14.444347  104.519707
0.756671  0.000000  0.000000  0.000000  -3.076770  3.839903  18.286618  69.744012  7.009161  -4.165831  41.653869  69.984364  -38.066598  14.444347  104.519707
0.757306  0.000000  0.000000  0.000000  -3.076770  3.839903  22.572333  69.873433  2.986596  -5.650408  41.653869  69.984364  -38.066598  14.444347  104.519707
0.757942  0.000000  0.000000  0.000000  -3.076770  3.839903  26.858047  69.898510  -1.037954  -7.124131  41.653869  69.984364  -38.066598  14.444347  104.519707
0.758577  0.000000  0.000000  0.000000  -3.076770  3.839903  31.143761  69.819847  -5.061816  -8.601615  41.653869  69.984364  -38.066598  14.444347  104.519707
0.759212  0.000000  0.000000  0.000000  -3.076770  3.839903  35.429476  69.635539  -9.082289  -10.097616  41.653869  69.984364  -38.066598  14.444347  104.519707
0.759848  0.000000  0.000000  0.000000  -3.076770  3.839903  39.715190  69.341067  -13.096535  -11.627586  41.653869  69.984364  -38.066598  14.444347  104.519707
0.760483  0.000000  0.000000  0.000000  -3.076770  3.839903  44.000904  68.929040  -17.101465  -13.208275  41.653869  69.984364  -38.066598  14.444347  104.519707
0.761118  0.000000  0.000000  0.000000  -3.076770  3.839903  48.286618  68.388783  -21.093600  -14.858439  41.653869  69.984364  -38.066598  14.444347  104.519707
0.761753  0.000000  0.000000  0.000000  -3.076770  3.839903  52.572333  67.705692  -25.068897  -16.599696  41.653869  69.984364  -38.066598  14.444347  104.519707
0.762389  0.000000  0.000000  0.000000  -7.233929  -0.318688  -9.732752  58.711548  16.291550  3.207571  58.997322  54.454255  -37.317756  28.005221  93.731377
0.763024  0.000000  0.000000  0.000000  -7.233929  -0.318688  -5.447038  59.280862  12.617624  0.928238  58.997322  54.454255  -37.317756  28.005221  93.731377
0.763659  0.000000  0.000000  0.000000  -7.233929  -0.318688  -1.161324  59.695007  8.924917  -1.286348  58.997322  54.454255  -37.317756  28.005221  93.731377
0.764295  0.000000  0.000000  0.000000  -7.233929  -0.318688  3.124391  59.962361  5.219353  -3.456427  58.997322  54.454255  -37.317756  28.005221  93.731377
0.764930  0.000000  0.000000  0.000000  -7.233929  -0.318688  7.410105  60.088235  1.506439  -5.600966  58.997322  54.454255  -37.317756  28.005221  93.731377
